<svg width="25" height="24" viewBox="0 0 25 24" fill="none" xmlns="http://www.w3.org/2000/svg">
<g clip-path="url(#clip0_313_3833)">
<path d="M23.2462 9.62125C24.1041 8.94633 24.7302 8.0208 25.0376 6.97345C25.3449 5.92609 25.3182 4.80898 24.9611 3.77753C24.6039 2.74608 23.9342 1.85159 23.0451 1.2185C22.1559 0.585403 21.0915 0.24519 20 0.24519C18.9085 0.24519 17.8441 0.585403 16.9549 1.2185C16.0658 1.85159 15.396 2.74608 15.0389 3.77753C14.6818 4.80898 14.6551 5.92609 14.9624 6.97345C15.2698 8.0208 15.8959 8.94633 16.7537 9.62125C15.2838 10.2102 14.0012 11.1869 13.0428 12.4474C12.0843 13.7079 11.4859 15.2049 11.3112 16.7787C11.2986 16.8937 11.3087 17.0099 11.341 17.1209C11.3733 17.2319 11.4272 17.3355 11.4995 17.4257C11.6455 17.6078 11.8579 17.7245 12.09 17.75C12.3221 17.7755 12.5548 17.7078 12.7369 17.5618C12.9191 17.4157 13.0357 17.2033 13.0612 16.9712C13.2534 15.2608 14.069 13.6811 15.3522 12.5339C16.6354 11.3868 18.2963 10.7526 20.0175 10.7526C21.7387 10.7526 23.3996 11.3868 24.6828 12.5339C25.966 13.6811 26.7816 15.2608 26.9737 16.9712C26.9975 17.1863 27.1001 17.3848 27.2617 17.5286C27.4233 17.6724 27.6324 17.7513 27.8487 17.75H27.945C28.1744 17.7236 28.384 17.6076 28.5282 17.4273C28.6725 17.2471 28.7396 17.0171 28.715 16.7875C28.5396 15.2092 27.9379 13.7084 26.9745 12.4459C26.0111 11.1835 24.7223 10.207 23.2462 9.62125ZM20 9C19.3078 9 18.6311 8.79473 18.0555 8.41014C17.4799 8.02556 17.0313 7.47893 16.7664 6.83939C16.5015 6.19985 16.4322 5.49612 16.5672 4.81718C16.7023 4.13825 17.0356 3.51461 17.5251 3.02512C18.0146 2.53564 18.6382 2.2023 19.3172 2.06725C19.9961 1.9322 20.6998 2.00151 21.3394 2.26642C21.9789 2.53133 22.5256 2.97993 22.9101 3.5555C23.2947 4.13107 23.5 4.80776 23.5 5.5C23.5 6.42826 23.1312 7.3185 22.4749 7.97487C21.8185 8.63125 20.9283 9 20 9Z" fill="#7C7575"/>
<path d="M9.24625 9.62125C10.1041 8.94633 10.7302 8.0208 11.0376 6.97345C11.3449 5.92609 11.3182 4.80898 10.9611 3.77753C10.6039 2.74608 9.93422 1.85159 9.04506 1.2185C8.1559 0.585403 7.09152 0.24519 6 0.24519C4.90848 0.24519 3.8441 0.585403 2.95494 1.2185C2.06577 1.85159 1.39605 2.74608 1.03893 3.77753C0.681818 4.80898 0.655071 5.92609 0.962413 6.97345C1.26976 8.0208 1.8959 8.94633 2.75375 9.62125C1.28382 10.2102 0.0012486 11.1869 -0.957222 12.4474C-1.91569 13.7079 -2.51414 15.2049 -2.68875 16.7787C-2.70139 16.8937 -2.69128 17.0099 -2.65898 17.1209C-2.62669 17.2319 -2.57284 17.3355 -2.50053 17.4257C-2.35449 17.6078 -2.14207 17.7245 -1.91 17.75C-1.67794 17.7755 -1.44524 17.7078 -1.26309 17.5618C-1.08095 17.4157 -0.96428 17.2033 -0.938753 16.9712C-0.746616 15.2608 0.0689731 13.6811 1.35219 12.5339C2.63541 11.3868 4.29628 10.7526 6.0175 10.7526C7.73871 10.7526 9.39959 11.3868 10.6828 12.5339C11.966 13.6811 12.7816 15.2608 12.9737 16.9712C12.9975 17.1863 13.1001 17.3848 13.2617 17.5286C13.4233 17.6724 13.6324 17.7513 13.8487 17.75H13.945C14.1744 17.7236 14.384 17.6076 14.5282 17.4273C14.6725 17.2471 14.7396 17.0171 14.715 16.7875C14.5396 15.2092 13.9379 13.7084 12.9745 12.4459C12.0111 11.1835 10.7223 10.207 9.24625 9.62125ZM6 9C5.30776 9 4.63107 8.79473 4.0555 8.41014C3.47993 8.02556 3.03133 7.47893 2.76642 6.83939C2.50151 6.19985 2.4322 5.49612 2.56725 4.81718C2.7023 4.13825 3.03564 3.51461 3.52512 3.02512C4.01461 2.53564 4.63825 2.2023 5.31718 2.06725C5.99612 1.9322 6.69985 2.00151 7.33939 2.26642C7.97893 2.53133 8.52556 2.97993 8.91014 3.5555C9.29473 4.13107 9.5 4.80776 9.5 5.5C9.5 6.42826 9.13125 7.3185 8.47487 7.97487C7.81849 8.63125 6.92826 9 6 9Z" fill="#726B6B"/>
<path d="M16.2462 14.1212C17.1041 13.4463 17.7302 12.5208 18.0376 11.4734C18.3449 10.4261 18.3182 9.30898 17.9611 8.27753C17.6039 7.24608 16.9342 6.35159 16.0451 5.7185C15.1559 5.0854 14.0915 4.74519 13 4.74519C11.9085 4.74519 10.8441 5.0854 9.95494 5.7185C9.06577 6.35159 8.39605 7.24608 8.03893 8.27753C7.68182 9.30898 7.65507 10.4261 7.96241 11.4734C8.26976 12.5208 8.8959 13.4463 9.75375 14.1212C8.28382 14.7102 7.00125 15.6869 6.04278 16.9474C5.08431 18.2079 4.48586 19.7049 4.31125 21.2787C4.29861 21.3937 4.30872 21.5099 4.34102 21.6209C4.37331 21.7319 4.42716 21.8355 4.49947 21.9257C4.64551 22.1078 4.85793 22.2245 5.09 22.25C5.32206 22.2755 5.55476 22.2078 5.73691 22.0618C5.91905 21.9157 6.03572 21.7033 6.06125 21.4712C6.25338 19.7608 7.06897 18.1811 8.35219 17.0339C9.63541 15.8868 11.2963 15.2526 13.0175 15.2526C14.7387 15.2526 16.3996 15.8868 17.6828 17.0339C18.966 18.1811 19.7816 19.7608 19.9737 21.4712C19.9975 21.6863 20.1001 21.8848 20.2617 22.0286C20.4233 22.1724 20.6324 22.2513 20.8487 22.25H20.945C21.1744 22.2236 21.384 22.1076 21.5282 21.9273C21.6725 21.7471 21.7396 21.5171 21.715 21.2875C21.5396 19.7092 20.9379 18.2084 19.9745 16.9459C19.0111 15.6835 17.7223 14.707 16.2462 14.1212ZM13 13.5C12.3078 13.5 11.6311 13.2947 11.0555 12.9101C10.4799 12.5256 10.0313 11.9789 9.76642 11.3394C9.50151 10.6998 9.4322 9.99612 9.56725 9.31718C9.7023 8.63825 10.0356 8.01461 10.5251 7.52512C11.0146 7.03564 11.6382 6.7023 12.3172 6.56725C12.9961 6.4322 13.6998 6.50151 14.3394 6.76642C14.9789 7.03133 15.5256 7.47993 15.9101 8.0555C16.2947 8.63107 16.5 9.30776 16.5 10C16.5 10.9283 16.1312 11.8185 15.4749 12.4749C14.8185 13.1312 13.9283 13.5 13 13.5Z" fill="black"/>
</g>
<defs>
<clipPath id="clip0_313_3833">
<rect width="24" height="24" fill="white" transform="translate(0.5)"/>
</clipPath>
</defs>
</svg>
