<svg width="23" height="16" viewBox="0 0 23 16" fill="none" xmlns="http://www.w3.org/2000/svg">
<rect x="2.5" y="3" width="18" height="2" rx="1" fill="#5A4242"/>
<rect x="2.5" y="3" width="18" height="2" rx="1" fill="#5A4242"/>
<rect x="2.5" y="3" width="18" height="2" rx="1" fill="#5A4242"/>
<rect x="2.5" y="7" width="18" height="2" rx="1" fill="#5A4242"/>
<rect x="2.5" y="7" width="18" height="2" rx="1" fill="#5A4242"/>
<rect x="2.5" y="7" width="18" height="2" rx="1" fill="#5A4242"/>
<path d="M2.5 12.5C2.5 11.9477 2.94772 11.5 3.5 11.5H19.5C20.0523 11.5 20.5 11.9477 20.5 12.5C20.5 13.0523 20.0523 13.5 19.5 13.5H3.5C2.94772 13.5 2.5 13.0523 2.5 12.5Z" fill="#5A4242"/>
<path d="M2.5 12.5C2.5 11.9477 2.94772 11.5 3.5 11.5H19.5C20.0523 11.5 20.5 11.9477 20.5 12.5C20.5 13.0523 20.0523 13.5 19.5 13.5H3.5C2.94772 13.5 2.5 13.0523 2.5 12.5Z" fill="#5A4242"/>
<path d="M2.5 12.5C2.5 11.9477 2.94772 11.5 3.5 11.5H19.5C20.0523 11.5 20.5 11.9477 20.5 12.5C20.5 13.0523 20.0523 13.5 19.5 13.5H3.5C2.94772 13.5 2.5 13.0523 2.5 12.5Z" fill="#5A4242"/>
</svg>
